<?xml version="1.0" encoding="UTF-8" standalone="no"?><svg xmlns="http://www.w3.org/2000/svg" xmlns:xlink="http://www.w3.org/1999/xlink" contentStyleType="text/css" height="386px" preserveAspectRatio="none" style="width:869px;height:386px;background:#FFFFFF;" version="1.1" viewBox="0 0 869 386" width="869px" zoomAndPan="magnify"><defs/><g><!--MD5=[bd2dfb8b71167a494ff10807d6d6a993]
class BaseHTTPRequestHandler--><g id="elem_BaseHTTPRequestHandler"><rect codeLine="2" fill="#F1F1F1" height="48" id="BaseHTTPRequestHandler" rx="2.5" ry="2.5" style="stroke:#181818;stroke-width:0.5;" width="208" x="307.5" y="7"/><ellipse cx="322.5" cy="23" fill="#ADD1B2" rx="11" ry="11" style="stroke:#181818;stroke-width:1.0;"/><path d="M324.9731,29.1431 Q324.3921,29.4419 323.7529,29.5913 Q323.1138,29.7407 322.4082,29.7407 Q319.9014,29.7407 318.5815,28.0889 Q317.2617,26.437 317.2617,23.3159 Q317.2617,20.1865 318.5815,18.5347 Q319.9014,16.8828 322.4082,16.8828 Q323.1138,16.8828 323.7612,17.0322 Q324.4087,17.1816 324.9731,17.4805 L324.9731,20.2031 Q324.3423,19.6221 323.7488,19.3523 Q323.1553,19.0825 322.5244,19.0825 Q321.1797,19.0825 320.4949,20.1492 Q319.8101,21.2158 319.8101,23.3159 Q319.8101,25.4077 320.4949,26.4744 Q321.1797,27.541 322.5244,27.541 Q323.1553,27.541 323.7488,27.2712 Q324.3423,27.0015 324.9731,26.4204 Z " fill="#000000"/><text fill="#000000" font-family="sans-serif" font-size="14" lengthAdjust="spacing" textLength="176" x="336.5" y="28.291">BaseHTTPRequestHandler</text><line style="stroke:#181818;stroke-width:0.5;" x1="308.5" x2="514.5" y1="39" y2="39"/><line style="stroke:#181818;stroke-width:0.5;" x1="308.5" x2="514.5" y1="47" y2="47"/></g><!--MD5=[1d36631261c3e68d5a5bd910f52c506d]
class AppRequestHandler--><g id="elem_AppRequestHandler"><rect codeLine="9" fill="#F1F1F1" height="146.9297" id="AppRequestHandler" rx="2.5" ry="2.5" style="stroke:#181818;stroke-width:0.5;" width="201" x="311" y="116"/><ellipse cx="340.4" cy="132" fill="#ADD1B2" rx="11" ry="11" style="stroke:#181818;stroke-width:1.0;"/><path d="M342.8731,138.1431 Q342.2921,138.4419 341.6529,138.5913 Q341.0138,138.7407 340.3082,138.7407 Q337.8014,138.7407 336.4815,137.0889 Q335.1617,135.437 335.1617,132.3159 Q335.1617,129.1865 336.4815,127.5347 Q337.8014,125.8828 340.3082,125.8828 Q341.0138,125.8828 341.6612,126.0322 Q342.3087,126.1816 342.8731,126.4805 L342.8731,129.2031 Q342.2423,128.6221 341.6488,128.3523 Q341.0553,128.0825 340.4244,128.0825 Q339.0797,128.0825 338.3949,129.1492 Q337.7101,130.2158 337.7101,132.3159 Q337.7101,134.4077 338.3949,135.4744 Q339.0797,136.541 340.4244,136.541 Q341.0553,136.541 341.6488,136.2712 Q342.2423,136.0015 342.8731,135.4204 Z " fill="#000000"/><text fill="#000000" font-family="sans-serif" font-size="14" lengthAdjust="spacing" textLength="137" x="357.6" y="137.291">AppRequestHandler</text><line style="stroke:#181818;stroke-width:0.5;" x1="312" x2="511" y1="148" y2="148"/><rect fill="none" height="6" style="stroke:#C82930;stroke-width:1.0;" width="6" x="319" y="156"/><text fill="#000000" font-family="sans-serif" font-size="14" lengthAdjust="spacing" textLength="175" x="331" y="165.5352">login: LoginAuthenticator</text><line style="stroke:#181818;stroke-width:0.5;" x1="312" x2="511" y1="172.4883" y2="172.4883"/><rect fill="#F24D5C" height="6" style="stroke:#C82930;stroke-width:1.0;" width="6" x="319" y="180.4883"/><text fill="#000000" font-family="sans-serif" font-size="14" lengthAdjust="spacing" textLength="78" x="331" y="190.0234">load_html()</text><rect fill="#F24D5C" height="6" style="stroke:#C82930;stroke-width:1.0;" width="6" x="319" y="196.9766"/><text fill="#000000" font-family="sans-serif" font-size="14" lengthAdjust="spacing" textLength="147" x="331" y="206.5117">responde(page_path)</text><rect fill="#F24D5C" height="6" style="stroke:#C82930;stroke-width:1.0;" width="6" x="319" y="213.4648"/><text fill="#000000" font-family="sans-serif" font-size="14" lengthAdjust="spacing" textLength="85" x="331" y="223">parse_data()</text><ellipse cx="322" cy="232.9531" fill="#84BE84" rx="3" ry="3" style="stroke:#038048;stroke-width:1.0;"/><text fill="#000000" font-family="sans-serif" font-size="14" lengthAdjust="spacing" textLength="62" x="331" y="239.4883">do_GET()</text><ellipse cx="322" cy="249.4414" fill="#84BE84" rx="3" ry="3" style="stroke:#038048;stroke-width:1.0;"/><text fill="#000000" font-family="sans-serif" font-size="14" lengthAdjust="spacing" textLength="71" x="331" y="255.9766">do_POST()</text></g><g id="elem_GMN4"><path d="M303,324 L303,379.9316 A0,0 0 0 0 303,379.9316 L520,379.9316 A0,0 0 0 0 520,379.9316 L520,334 L510,324 L415.5,324 L411.5,263.24 L407.5,324 L303,324 A0,0 0 0 0 303,324 " fill="#FEFFDD" style="stroke:#181818;stroke-width:0.5;"/><path d="M510,324 L510,334 L520,334 L510,324 " fill="#FEFFDD" style="stroke:#181818;stroke-width:0.5;"/><text fill="#000000" font-family="sans-serif" font-size="13" lengthAdjust="spacing" textLength="192" x="309" y="341.5684">This is the concrete handler of</text><text fill="#000000" font-family="sans-serif" font-size="13" lengthAdjust="spacing" textLength="182" x="309" y="356.8789">requests which arrives to the</text><text fill="#000000" font-family="sans-serif" font-size="13" lengthAdjust="spacing" textLength="42" x="309" y="372.1895">server.</text></g><!--MD5=[c19b25582ab91655c95f9f85f2e4e17f]
class WebServerAgent--><g id="elem_WebServerAgent"><rect codeLine="18" fill="#F1F1F1" height="64.4883" id="WebServerAgent" rx="2.5" ry="2.5" style="stroke:#181818;stroke-width:0.5;" width="145" x="7" y="157.5"/><ellipse cx="22" cy="173.5" fill="#ADD1B2" rx="11" ry="11" style="stroke:#181818;stroke-width:1.0;"/><path d="M24.4731,179.6431 Q23.8921,179.9419 23.2529,180.0913 Q22.6138,180.2407 21.9082,180.2407 Q19.4014,180.2407 18.0815,178.5889 Q16.7617,176.937 16.7617,173.8159 Q16.7617,170.6865 18.0815,169.0347 Q19.4014,167.3828 21.9082,167.3828 Q22.6138,167.3828 23.2612,167.5322 Q23.9087,167.6816 24.4731,167.9805 L24.4731,170.7031 Q23.8423,170.1221 23.2488,169.8523 Q22.6553,169.5825 22.0244,169.5825 Q20.6797,169.5825 19.9949,170.6492 Q19.3101,171.7158 19.3101,173.8159 Q19.3101,175.9077 19.9949,176.9744 Q20.6797,178.041 22.0244,178.041 Q22.6553,178.041 23.2488,177.7712 Q23.8423,177.5015 24.4731,176.9204 Z " fill="#000000"/><text fill="#000000" font-family="sans-serif" font-size="14" lengthAdjust="spacing" textLength="113" x="36" y="178.791">WebServerAgent</text><line style="stroke:#181818;stroke-width:0.5;" x1="8" x2="151" y1="189.5" y2="189.5"/><line style="stroke:#181818;stroke-width:0.5;" x1="8" x2="151" y1="197.5" y2="197.5"/><ellipse cx="18" cy="208.5" fill="#84BE84" rx="3" ry="3" style="stroke:#038048;stroke-width:1.0;"/><text fill="#000000" font-family="sans-serif" font-size="14" lengthAdjust="spacing" textLength="89" x="27" y="215.0352">run(port: int)</text></g><!--MD5=[b4316502e584933783e78d5ee6058b3f]
class LoginAuthenticator--><g id="elem_LoginAuthenticator"><rect codeLine="24" fill="#F1F1F1" height="64.4883" id="LoginAuthenticator" rx="2.5" ry="2.5" style="stroke:#181818;stroke-width:0.5;" width="315" x="547" y="157.5"/><ellipse cx="634.25" cy="173.5" fill="#ADD1B2" rx="11" ry="11" style="stroke:#181818;stroke-width:1.0;"/><path d="M636.7231,179.6431 Q636.1421,179.9419 635.5029,180.0913 Q634.8638,180.2407 634.1582,180.2407 Q631.6514,180.2407 630.3315,178.5889 Q629.0117,176.937 629.0117,173.8159 Q629.0117,170.6865 630.3315,169.0347 Q631.6514,167.3828 634.1582,167.3828 Q634.8638,167.3828 635.5112,167.5322 Q636.1587,167.6816 636.7231,167.9805 L636.7231,170.7031 Q636.0923,170.1221 635.4988,169.8523 Q634.9053,169.5825 634.2744,169.5825 Q632.9297,169.5825 632.2449,170.6492 Q631.5601,171.7158 631.5601,173.8159 Q631.5601,175.9077 632.2449,176.9744 Q632.9297,178.041 634.2744,178.041 Q634.9053,178.041 635.4988,177.7712 Q636.0923,177.5015 636.7231,176.9204 Z " fill="#000000"/><text fill="#000000" font-family="sans-serif" font-size="14" lengthAdjust="spacing" textLength="132" x="654.75" y="178.791">LoginAuthenticator</text><line style="stroke:#181818;stroke-width:0.5;" x1="548" x2="861" y1="189.5" y2="189.5"/><line style="stroke:#181818;stroke-width:0.5;" x1="548" x2="861" y1="197.5" y2="197.5"/><ellipse cx="558" cy="208.5" fill="#84BE84" rx="3" ry="3" style="stroke:#038048;stroke-width:1.0;"/><text fill="#000000" font-family="sans-serif" font-size="14" lengthAdjust="spacing" textLength="289" x="567" y="215.0352">authenticate(usr: string, pwd: string): bool</text></g><!--MD5=[2ade9dcf93f3fe0ebd39690061da28b4]
reverse link BaseHTTPRequestHandler to AppRequestHandler--><g id="link_BaseHTTPRequestHandler_AppRequestHandler"><path d="M411.5,75.12 C411.5,87.72 411.5,101.85 411.5,115.74 " fill="none" id="BaseHTTPRequestHandler-backto-AppRequestHandler" style="stroke:#181818;stroke-width:1.0;"/><polygon fill="none" points="404.5,75.09,411.5,55.09,418.5,75.09,404.5,75.09" style="stroke:#181818;stroke-width:1.0;"/></g><!--MD5=[5c2a7a52c332e3fcfc9f58fe28c7f062]
link WebServerAgent to AppRequestHandler--><g id="link_WebServerAgent_AppRequestHandler"><path codeLine="22" d="M152.36,189.5 C197.29,189.5 255.69,189.5 305.67,189.5 " fill="none" id="WebServerAgent-to-AppRequestHandler" style="stroke:#181818;stroke-width:1.0;stroke-dasharray:7.0,7.0;"/><polygon fill="#181818" points="310.79,189.5,301.79,185.5,305.79,189.5,301.79,193.5,310.79,189.5" style="stroke:#181818;stroke-width:1.0;"/><text fill="#000000" font-family="sans-serif" font-size="13" lengthAdjust="spacing" textLength="122" x="170.5" y="183.0684">send the request to</text></g><!--MD5=[19d45f4cec767327636b739b8e17ef99]
reverse link AppRequestHandler to LoginAuthenticator--><g id="link_AppRequestHandler_LoginAuthenticator"><path codeLine="28" d="M525.45,189.5 C532.55,189.5 539.66,189.5 546.77,189.5 " fill="none" id="AppRequestHandler-backto-LoginAuthenticator" style="stroke:#181818;stroke-width:1.0;"/><polygon fill="none" points="512.22,189.5,518.22,193.5,524.22,189.5,518.22,185.5,512.22,189.5" style="stroke:#181818;stroke-width:1.0;"/></g><!--MD5=[5d6f97cf9a746228f2407e9ebbe187ff]
@startuml arch

class BaseHTTPRequestHandler

note bottom of AppRequestHandler
This is the concrete handler of 
requests which arrives to the 
server. 
endnote
class AppRequestHandler extends BaseHTTPRequestHandler {
    - login: LoginAuthenticator
    - load_html()
    - responde(page_path)
    - parse_data()
    + do_GET()
    + do_POST()
}

class WebServerAgent {
    + run(port: int)
}

WebServerAgent .right.> AppRequestHandler : send the request to

class LoginAuthenticator {
    + authenticate(usr: string, pwd: string): bool
}

AppRequestHandler o-right- LoginAuthenticator

@enduml

PlantUML version 1.2022.5(Sat Apr 30 12:55:52 CEST 2022)
(GPL source distribution)
Java Runtime: OpenJDK Runtime Environment
JVM: OpenJDK 64-Bit Server VM
Default Encoding: UTF-8
Language: en
Country: IT
--></g></svg>